<?xml version="1.0" standalone="no"?>
<!DOCTYPE svg PUBLIC "-//W3C//DTD SVG 20010904//EN"
 "http://www.w3.org/TR/2001/REC-SVG-20010904/DTD/svg10.dtd">
<svg version="1.0" xmlns="http://www.w3.org/2000/svg"
 width="64.000000pt" height="64.000000pt" viewBox="0 0 64.000000 64.000000"
 preserveAspectRatio="xMidYMid meet">

<g transform="translate(0.000000,64.000000) scale(0.100000,-0.100000)"
fill="#000000" stroke="none">
<path d="M206 554 c-30 -30 -8 -90 30 -83 28 6 33 74 5 88 -15 8 -23 7 -35 -5z"/>
<path d="M107 543 c-13 -12 -7 -62 9 -78 25 -25 49 -15 52 23 2 18 -2 40 -9
48 -12 15 -41 19 -52 7z"/>
<path d="M292 518 c-28 -28 -2 -88 33 -74 21 8 29 31 21 61 -7 27 -34 33 -54
13z"/>
<path d="M37 473 c-16 -15 -6 -63 14 -73 30 -17 49 -5 49 29 0 37 -42 66 -63
44z"/>
<path d="M168 425 c-28 -16 -58 -62 -58 -88 0 -8 7 -20 15 -27 13 -11 22 -10
51 3 19 10 48 17 65 17 67 0 89 38 45 79 -30 28 -83 36 -118 16z"/>
<path d="M457 303 c-9 -8 -9 -46 -1 -67 10 -26 53 -20 60 8 11 43 -32 86 -59
59z"/>
<path d="M545 270 c-14 -43 22 -84 51 -59 17 14 18 51 2 67 -18 18 -46 14 -53
-8z"/>
<path d="M357 251 c-2 -10 0 -27 6 -37 21 -39 51 -45 67 -13 9 16 8 26 -5 45
-19 29 -60 33 -68 5z"/>
<path d="M307 193 c-13 -12 -7 -51 9 -67 35 -36 76 -7 52 37 -17 33 -45 47
-61 30z"/>
<path d="M449 165 c-28 -15 -53 -63 -47 -91 6 -35 35 -41 78 -16 21 12 55 22
74 22 27 0 36 5 42 22 5 17 -1 28 -25 50 -35 31 -79 36 -122 13z"/>
</g>
</svg>
